<svg width="24" height="24" viewBox="0 0 24 24" fill="none" xmlns="http://www.w3.org/2000/svg">
<path d="M8.14999 18L7.39999 16.8C8.73332 16.6666 9.77499 16.3083 10.525 15.725C11.275 15.1416 11.65 14.3916 11.65 13.475C11.65 12.975 11.4792 12.5166 11.1375 12.1C10.7958 11.6833 10.35 11.3833 9.79999 11.2C9.41665 12.15 8.96249 13 8.43749 13.75C7.91249 14.5 7.33332 15.15 6.69999 15.7C6.74999 15.9 6.80415 16.1 6.86249 16.3C6.92082 16.5 6.98332 16.7 7.04999 16.9L5.79999 17.275C5.74999 17.1083 5.70832 16.9625 5.67499 16.8375C5.64165 16.7125 5.60832 16.6 5.57499 16.5C5.14165 16.7333 4.73332 16.9125 4.34999 17.0375C3.96665 17.1625 3.59165 17.225 3.22499 17.225C2.69165 17.225 2.25832 17.05 1.92499 16.7C1.59165 16.35 1.42499 15.8833 1.42499 15.3C1.42499 14.4166 1.75832 13.5416 2.42499 12.675C3.09165 11.8083 3.94999 11.125 4.99999 10.625C5.01665 10.3083 5.03332 9.99581 5.04999 9.68748C5.06665 9.37914 5.09165 9.06664 5.12499 8.74998C4.65832 8.76664 4.16665 8.76248 3.64999 8.73748C3.13332 8.71248 2.57499 8.67498 1.97499 8.62498L1.94999 7.29998C2.38332 7.38331 2.84999 7.43748 3.34999 7.46248C3.84999 7.48748 4.49165 7.49998 5.27499 7.49998C5.30832 7.19998 5.34582 6.90414 5.38749 6.61248C5.42915 6.32081 5.43332 6.02498 5.39999 5.72498L6.89999 5.74998C6.78332 6.03331 6.69999 6.32081 6.64999 6.61248C6.59999 6.90414 6.54999 7.19164 6.49999 7.47498C7.46665 7.42498 8.35832 7.34998 9.17499 7.24998C9.99165 7.14998 10.7583 7.01664 11.475 6.84998L11.5 8.14998C10.6167 8.28331 9.75415 8.39581 8.91249 8.48748C8.07082 8.57914 7.22499 8.64998 6.37499 8.69998C6.34165 8.93331 6.32082 9.17498 6.31249 9.42498C6.30415 9.67498 6.28332 9.91664 6.24999 10.15C6.71665 10.0166 7.17082 9.92498 7.61249 9.87498C8.05415 9.82498 8.49165 9.81664 8.92499 9.84998C8.97499 9.68331 9.01249 9.51664 9.03749 9.34998C9.06249 9.18331 9.08332 9.01664 9.09999 8.84998L10.525 9.19998C10.475 9.33331 10.4208 9.46664 10.3625 9.59998C10.3042 9.73331 10.25 9.89164 10.2 10.075C11.05 10.3083 11.7292 10.7416 12.2375 11.375C12.7458 12.0083 13 12.7166 13 13.5C13 14.6666 12.5708 15.6458 11.7125 16.4375C10.8542 17.2291 9.66665 17.75 8.14999 18ZM3.44999 15.875C3.73332 15.875 4.02499 15.8166 4.32499 15.7C4.62499 15.5833 4.94165 15.4083 5.27499 15.175C5.15832 14.5416 5.07499 13.9666 5.02499 13.45C4.97499 12.9333 4.94999 12.4416 4.94999 11.975C4.31665 12.375 3.79165 12.8666 3.37499 13.45C2.95832 14.0333 2.74999 14.5833 2.74999 15.1C2.74999 15.3166 2.82082 15.5 2.96249 15.65C3.10415 15.8 3.26665 15.875 3.44999 15.875ZM6.39999 14.25C6.88332 13.7833 7.30415 13.2791 7.66249 12.7375C8.02082 12.1958 8.31665 11.6166 8.54999 11C8.16665 11 7.77915 11.0333 7.38749 11.1C6.99582 11.1666 6.59999 11.2666 6.19999 11.4C6.16665 11.8333 6.17082 12.2833 6.21249 12.75C6.25415 13.2166 6.31665 13.7166 6.39999 14.25ZM17.55 15.65C18.0167 15.65 18.4708 15.5416 18.9125 15.325C19.3542 15.1083 19.7583 14.8 20.125 14.4V11.75C19.7417 11.8 19.3875 11.8583 19.0625 11.925C18.7375 11.9916 18.4333 12.0666 18.15 12.15C17.4 12.3833 16.8375 12.675 16.4625 13.025C16.0875 13.375 15.9 13.7833 15.9 14.25C15.9 14.6833 16.05 15.025 16.35 15.275C16.65 15.525 17.05 15.65 17.55 15.65ZM16.975 17.35C16.025 17.35 15.275 17.0791 14.725 16.5375C14.175 15.9958 13.9 15.2583 13.9 14.325C13.9 13.4583 14.175 12.75 14.725 12.2C15.275 11.65 16.1583 11.2083 17.375 10.875C17.7583 10.775 18.1792 10.6833 18.6375 10.6C19.0958 10.5166 19.5917 10.4416 20.125 10.375C20.0917 9.59164 19.9083 9.02081 19.575 8.66248C19.2417 8.30414 18.725 8.12498 18.025 8.12498C17.5917 8.12498 17.1625 8.20414 16.7375 8.36248C16.3125 8.52081 15.7667 8.79998 15.1 9.19998L14.3 7.79998C14.85 7.38331 15.4958 7.04581 16.2375 6.78748C16.9792 6.52914 17.7333 6.39998 18.5 6.39998C19.6833 6.39998 20.5833 6.76664 21.2 7.49998C21.8167 8.23331 22.125 9.29998 22.125 10.7V17.125H20.45L20.3 16C19.8333 16.4166 19.3208 16.7458 18.7625 16.9875C18.2042 17.2291 17.6083 17.35 16.975 17.35Z" fill="url(#paint0_linear_23_39)"/>
<defs>
<linearGradient id="paint0_linear_23_39" x1="11.775" y1="5.72498" x2="11.775" y2="18" gradientUnits="userSpaceOnUse">
<stop stop-color="#972828"/>
<stop offset="1" stop-color="#681717"/>
</linearGradient>
</defs>
</svg>
