<svg width="24" height="24" viewBox="0 0 24 24" fill="none" xmlns="http://www.w3.org/2000/svg">
<g clip-path="url(#clip0_26_14)">
<path d="M12 15C13.6569 15 15 13.6569 15 12C15 10.3431 13.6569 9 12 9C10.3431 9 9 10.3431 9 12C9 13.6569 10.3431 15 12 15Z" fill="url(#paint0_linear_26_14)"/>
<path d="M9 2L7.17 4H2V20H22V4H16.83L15 2H9ZM12 17C9.24 17 7 14.76 7 12C7 9.24 9.24 7 12 7C14.76 7 17 9.24 17 12C17 14.76 14.76 17 12 17Z" fill="url(#paint1_linear_26_14)"/>
</g>
<defs>
<linearGradient id="paint0_linear_26_14" x1="12" y1="9" x2="12" y2="15" gradientUnits="userSpaceOnUse">
<stop stop-color="#992828"/>
<stop offset="1" stop-color="#651616"/>
</linearGradient>
<linearGradient id="paint1_linear_26_14" x1="12" y1="2" x2="12" y2="20" gradientUnits="userSpaceOnUse">
<stop stop-color="#992828"/>
<stop offset="1" stop-color="#651616"/>
</linearGradient>
<clipPath id="clip0_26_14">
<rect width="24" height="24" fill="white"/>
</clipPath>
</defs>
</svg>
