<svg width="65" height="19" viewBox="0 0 65 19" fill="none" xmlns="http://www.w3.org/2000/svg">
<path d="M5.51554 14.8536C5.56913 14.7745 5.63004 14.6582 5.69825 14.5048C5.76646 14.3465 5.82006 14.1486 5.85904 13.9111C5.91263 13.5647 5.9711 13.1763 6.03444 12.7458C6.10266 12.3104 6.17087 11.8552 6.23908 11.3802C6.31217 10.9052 6.38282 10.4203 6.45103 9.92552C6.52412 9.42578 6.59233 8.93594 6.65567 8.45599C6.72389 7.97109 6.78723 7.50599 6.8457 7.06068C6.90904 6.61042 6.96507 6.19974 7.01379 5.82865C7.06252 5.45755 7.1015 5.13594 7.13073 4.8638C7.16484 4.58672 7.1892 4.37891 7.20382 4.24036H8.132L12.7291 12.9685L17.2896 4.24036H17.984L19.1826 13.0576C19.2167 13.3346 19.2532 13.5721 19.2922 13.7701C19.3312 13.968 19.3702 14.1387 19.4091 14.2822C19.4481 14.4207 19.4847 14.537 19.5188 14.631C19.5577 14.7201 19.5943 14.7943 19.6284 14.8536V14.8833H17.7866V14.8536C17.811 14.7992 17.8329 14.7102 17.8524 14.5865C17.8768 14.4628 17.8889 14.3143 17.8889 14.1411C17.8889 14.0768 17.8865 14.0125 17.8816 13.9482C17.8768 13.8789 17.8695 13.8047 17.8597 13.7255L16.9315 6.61536L12.6195 14.8536L12.1152 14.7943L7.77388 6.54115C7.60335 7.7138 7.45474 8.7974 7.32806 9.79193C7.27447 10.2174 7.22087 10.643 7.16727 11.0685C7.11368 11.4891 7.06495 11.8824 7.0211 12.2486C6.98212 12.6147 6.95045 12.9388 6.92609 13.2208C6.90173 13.4979 6.88955 13.7033 6.88955 13.8368C6.88955 14.0051 6.89442 14.1535 6.90416 14.2822C6.91391 14.4108 6.92365 14.5197 6.9334 14.6087C6.94802 14.7126 6.96263 14.8042 6.97725 14.8833H5.51554V14.8536Z" fill="#666666"/>
<path d="M25.9649 12.3747C25.8334 12.3747 25.6677 12.3747 25.4679 12.3747C25.273 12.3747 25.0587 12.3747 24.8248 12.3747C24.5909 12.3747 24.3497 12.3747 24.1012 12.3747C23.8527 12.3747 23.6164 12.3772 23.3923 12.3822C23.1682 12.3822 22.9635 12.3846 22.7784 12.3896C22.5932 12.3896 22.4495 12.3896 22.3472 12.3896L22.0768 12.9685C21.9598 13.206 21.8599 13.4138 21.7771 13.5919C21.6943 13.7651 21.6261 13.9185 21.5725 14.0521C21.5189 14.1857 21.4799 14.302 21.4555 14.4009C21.4312 14.4949 21.419 14.584 21.419 14.6681C21.419 14.7225 21.4214 14.7646 21.4263 14.7943C21.4312 14.819 21.4385 14.8388 21.4482 14.8536V14.8833H20.1619V14.8536C20.196 14.819 20.2496 14.7448 20.3227 14.631C20.3958 14.5122 20.4786 14.3687 20.5712 14.2005C20.6686 14.0323 20.771 13.8418 20.8782 13.629C20.9902 13.4163 21.0998 13.1961 21.207 12.9685L24.1889 6.71927H24.7371L27.6605 12.9685C27.7726 13.206 27.8846 13.4336 27.9967 13.6513C28.1136 13.869 28.2208 14.0645 28.3183 14.2376C28.4157 14.4059 28.501 14.5469 28.5741 14.6607C28.6472 14.7695 28.6959 14.8339 28.7203 14.8536V14.8833H26.8493C26.859 14.8438 26.8639 14.8091 26.8639 14.7794C26.8639 14.7448 26.8639 14.7077 26.8639 14.6681C26.8639 14.5592 26.8395 14.4281 26.7908 14.2747C26.7469 14.1214 26.6909 13.9655 26.6227 13.8072C26.5594 13.6439 26.4911 13.488 26.4181 13.3396C26.3498 13.1911 26.2938 13.0674 26.25 12.9685L25.9649 12.3747ZM22.6322 11.7958H23.078C23.2827 11.7958 23.4995 11.7958 23.7285 11.7958C23.9624 11.7909 24.1962 11.7884 24.4301 11.7884C24.664 11.7884 24.8906 11.7884 25.1098 11.7884C25.3291 11.7835 25.5264 11.781 25.7018 11.781L24.1889 8.50052L22.6322 11.7958Z" fill="#666666"/>
<path d="M31.0955 11.0091C31.193 11.024 31.2904 11.0363 31.3879 11.0462C31.4902 11.0512 31.5876 11.0536 31.6802 11.0536C32.2893 11.0536 32.7497 10.8879 33.0615 10.5564C33.3782 10.2249 33.5366 9.7276 33.5366 9.06458C33.5366 8.52031 33.4099 8.08984 33.1566 7.77318C32.9081 7.45651 32.5402 7.29818 32.053 7.29818C31.897 7.29818 31.7582 7.3056 31.6364 7.32044C31.5194 7.33034 31.4195 7.34271 31.3367 7.35755C31.2441 7.37734 31.1637 7.39714 31.0955 7.41693V11.0091ZM32.2137 11.4915C32.1163 11.5064 32.0189 11.5163 31.9214 11.5212C31.8288 11.5212 31.7338 11.5212 31.6364 11.5212C31.5584 11.5212 31.4731 11.5188 31.3806 11.5138C31.288 11.5089 31.193 11.5014 31.0955 11.4915V11.8552C31.0955 12.2956 31.1004 12.6815 31.1102 13.013C31.1199 13.3396 31.1321 13.6216 31.1467 13.8591C31.1662 14.0966 31.1881 14.297 31.2125 14.4603C31.2368 14.6186 31.2661 14.7497 31.3002 14.8536V14.8833H29.6119V14.8536C29.646 14.7497 29.6752 14.6161 29.6996 14.4529C29.7288 14.2896 29.7508 14.0892 29.7654 13.8517C29.7849 13.6092 29.7995 13.3223 29.8092 12.9908C29.819 12.6592 29.8238 12.2708 29.8238 11.8255V9.95521C29.8238 9.5099 29.819 9.12396 29.8092 8.7974C29.7995 8.46589 29.7849 8.18138 29.7654 7.94388C29.7508 7.70143 29.7288 7.49857 29.6996 7.33529C29.6752 7.17201 29.646 7.03841 29.6119 6.9345V6.90482C29.6899 6.90977 29.7727 6.91471 29.8604 6.91966C29.9335 6.92461 30.0139 6.92956 30.1016 6.9345C30.1941 6.9345 30.2867 6.9345 30.3793 6.9345C30.5352 6.9345 30.7667 6.91966 31.0736 6.88997C31.3806 6.86029 31.7411 6.84544 32.1553 6.84544C32.5743 6.84544 32.9543 6.8974 33.2954 7.0013C33.6414 7.10521 33.9361 7.25365 34.1798 7.44661C34.4282 7.63958 34.6183 7.87461 34.7498 8.15169C34.8862 8.42878 34.9545 8.73802 34.9545 9.07943C34.9545 9.34661 34.9179 9.59154 34.8448 9.81419C34.7717 10.0319 34.6694 10.2298 34.5379 10.4079C34.4063 10.5811 34.2504 10.7345 34.0701 10.8681C33.8898 11.0017 33.6901 11.118 33.4708 11.2169L34.9983 13.4064C35.1299 13.5845 35.2614 13.7552 35.393 13.9185C35.5294 14.0818 35.6585 14.2277 35.7803 14.3564C35.9021 14.485 36.0166 14.5939 36.1238 14.6829C36.231 14.7671 36.3212 14.824 36.3943 14.8536V14.8833H34.4794C34.4794 14.8388 34.4477 14.7621 34.3844 14.6533C34.3259 14.5395 34.2553 14.4232 34.1724 14.3044C34.0945 14.1807 34.0141 14.062 33.9313 13.9482C33.8533 13.8344 33.7948 13.7503 33.7559 13.6958L32.2137 11.4915Z" fill="#666666"/>
<path d="M43.6809 13.2283L43.1108 14.6087C42.9695 14.673 42.8087 14.7324 42.6285 14.7868C42.4531 14.8363 42.2703 14.8784 42.0803 14.913C41.8903 14.9477 41.6954 14.9724 41.4956 14.9872C41.3007 15.007 41.1156 15.0169 40.9402 15.0169C40.3263 15.0169 39.7562 14.9254 39.23 14.7423C38.7086 14.5592 38.2579 14.2921 37.8779 13.9408C37.4978 13.5845 37.2006 13.1491 36.9862 12.6345C36.7719 12.1199 36.6647 11.5311 36.6647 10.8681C36.6647 10.2842 36.7767 9.74245 37.0009 9.24271C37.225 8.74297 37.5344 8.31003 37.9291 7.94388C38.3237 7.57279 38.789 7.28333 39.325 7.07552C39.8658 6.86771 40.4505 6.7638 41.079 6.7638C41.2203 6.7638 41.369 6.77122 41.5249 6.78607C41.6857 6.79596 41.844 6.81328 41.9999 6.83802C42.1558 6.86276 42.3069 6.89245 42.4531 6.92708C42.5992 6.95677 42.7357 6.98893 42.8623 7.02357L43.4105 8.3595L43.3228 8.41146C43.1912 8.24818 43.0329 8.09727 42.8477 7.95872C42.6674 7.82018 42.4677 7.70391 42.2484 7.6099C42.034 7.51094 41.8075 7.43424 41.5687 7.37982C41.33 7.32539 41.0864 7.29818 40.8379 7.29818C40.4335 7.29818 40.0632 7.36992 39.727 7.51341C39.3956 7.6569 39.1106 7.86719 38.8719 8.14427C38.638 8.41641 38.4553 8.75039 38.3237 9.14622C38.1922 9.54206 38.1264 9.98984 38.1264 10.4896C38.1264 11.0536 38.1897 11.5806 38.3164 12.0704C38.4431 12.5553 38.6331 12.9784 38.8865 13.3396C39.1398 13.6958 39.4565 13.9779 39.8366 14.1857C40.2166 14.3885 40.66 14.49 41.1667 14.49C41.4104 14.49 41.6491 14.4603 41.883 14.4009C42.1217 14.3366 42.3459 14.2475 42.5554 14.1337C42.7698 14.0199 42.9647 13.8839 43.1401 13.7255C43.3155 13.5622 43.4665 13.3816 43.5932 13.1837L43.6809 13.2283Z" fill="#666666"/>
<path d="M44.8722 6.90482C45.3497 6.90482 45.8394 6.90482 46.3412 6.90482C46.8431 6.89987 47.3084 6.89492 47.7372 6.88997C48.1659 6.88008 48.5338 6.87018 48.8407 6.86029C49.1526 6.85039 49.3572 6.83555 49.4547 6.81575L49.1696 7.61732C49.0381 7.58268 48.8895 7.55052 48.7238 7.52083C48.5776 7.49609 48.3998 7.47383 48.1903 7.45404C47.9856 7.4293 47.7469 7.41693 47.474 7.41693C47.3766 7.41693 47.2645 7.42188 47.1379 7.43177C47.0112 7.43672 46.8894 7.44414 46.7724 7.45404C46.636 7.46393 46.4971 7.47383 46.3558 7.48372V10.4154C46.7505 10.4104 47.1062 10.4005 47.4229 10.3857C47.7396 10.3708 48.01 10.351 48.2341 10.3263C48.4972 10.3065 48.7287 10.2793 48.9285 10.2447L48.753 11.1279C48.4851 11.0932 48.2146 11.0635 47.9418 11.0388C47.7079 11.0141 47.4497 10.9943 47.1671 10.9794C46.8845 10.9596 46.6141 10.9497 46.3558 10.9497V14.3193C46.809 14.3193 47.2256 14.302 47.6056 14.2673C47.9856 14.2277 48.317 14.1857 48.5996 14.1411C48.9309 14.0867 49.2305 14.0249 49.4985 13.9556L49.3304 14.9279C49.2573 14.9229 49.138 14.9155 48.9723 14.9056C48.8115 14.9007 48.641 14.8957 48.4607 14.8908C48.2853 14.8908 48.1196 14.8883 47.9637 14.8833C47.8078 14.8833 47.7006 14.8833 47.6421 14.8833H44.8722V14.8536C44.9063 14.7497 44.9355 14.6161 44.9599 14.4529C44.9891 14.2896 45.0111 14.0892 45.0257 13.8517C45.0452 13.6092 45.0598 13.3223 45.0695 12.9908C45.0793 12.6592 45.0841 12.2708 45.0841 11.8255V9.95521C45.0841 9.5099 45.0793 9.12396 45.0695 8.7974C45.0598 8.46589 45.0452 8.18138 45.0257 7.94388C45.0111 7.70143 44.9891 7.49857 44.9599 7.33529C44.9355 7.17201 44.9063 7.03841 44.8722 6.9345V6.90482Z" fill="#666666"/>
<path d="M52.612 14.3044C53.0651 14.3044 53.4817 14.2871 53.8617 14.2525C54.2467 14.2129 54.5829 14.1708 54.8703 14.1263C55.2065 14.0719 55.511 14.01 55.7839 13.9408L55.6158 14.9279C55.5476 14.9229 55.4306 14.9155 55.265 14.9056C55.1042 14.9007 54.9337 14.8957 54.7534 14.8908C54.5731 14.8908 54.405 14.8883 54.2491 14.8833C54.0932 14.8833 53.986 14.8833 53.9275 14.8833H51.1283V14.8536C51.1624 14.7497 51.1917 14.6161 51.216 14.4529C51.2453 14.2896 51.2672 14.0892 51.2818 13.8517C51.3013 13.6092 51.3159 13.3223 51.3257 12.9908C51.3354 12.6592 51.3403 12.2708 51.3403 11.8255V9.95521C51.3403 9.5099 51.3354 9.12396 51.3257 8.7974C51.3159 8.46589 51.3013 8.18138 51.2818 7.94388C51.2672 7.70143 51.2453 7.49857 51.216 7.33529C51.1917 7.17201 51.1624 7.03841 51.1283 6.9345V6.90482H52.8166V6.9345C52.7825 7.03841 52.7533 7.17201 52.7289 7.33529C52.7045 7.49857 52.6826 7.70143 52.6631 7.94388C52.6485 8.18138 52.6363 8.46589 52.6266 8.7974C52.6168 9.12396 52.612 9.5099 52.612 9.95521V14.3044Z" fill="#666666"/>
<path d="M56.6317 10.8681C56.6317 10.2842 56.7389 9.74245 56.9533 9.24271C57.1725 8.74297 57.4697 8.31003 57.8449 7.94388C58.2201 7.57279 58.6635 7.28333 59.1751 7.07552C59.6867 6.86771 60.2348 6.7638 60.8195 6.7638C61.3944 6.7638 61.9353 6.86276 62.442 7.06068C62.9536 7.25365 63.397 7.53073 63.7722 7.89193C64.1522 8.25313 64.4519 8.69102 64.6711 9.2056C64.8904 9.72018 65 10.2966 65 10.9349C65 11.4643 64.9074 11.9764 64.7223 12.4712C64.5371 12.9611 64.2667 13.3965 63.911 13.7775C63.5553 14.1535 63.1168 14.4553 62.5955 14.6829C62.0741 14.9056 61.4773 15.0169 60.8049 15.0169C60.2348 15.0169 59.6964 14.9204 59.1897 14.7275C58.683 14.5345 58.2396 14.2599 57.8595 13.9036C57.4795 13.5424 57.1798 13.107 56.9606 12.5974C56.7413 12.0828 56.6317 11.5064 56.6317 10.8681ZM60.9876 14.49C61.3579 14.49 61.699 14.4158 62.0108 14.2673C62.3226 14.1189 62.5906 13.9061 62.8147 13.629C63.0437 13.352 63.2191 13.0155 63.341 12.6197C63.4676 12.2189 63.531 11.7686 63.531 11.2689C63.531 10.6999 63.4701 10.1729 63.3483 9.68802C63.2313 9.20312 63.051 8.78503 62.8074 8.43372C62.5687 8.07747 62.269 7.80039 61.9085 7.60247C61.5479 7.39961 61.1265 7.29818 60.6441 7.29818C60.2738 7.29818 59.9327 7.36992 59.6209 7.51341C59.3091 7.6569 59.0386 7.86471 58.8096 8.13685C58.5855 8.40898 58.4101 8.74297 58.2834 9.1388C58.1567 9.53464 58.0934 9.9849 58.0934 10.4896C58.0934 11.0536 58.1543 11.5806 58.2761 12.0704C58.4028 12.5553 58.5855 12.9784 58.8243 13.3396C59.0679 13.6958 59.37 13.9779 59.7305 14.1857C60.0911 14.3885 60.5101 14.49 60.9876 14.49Z" fill="#666666"/>
<path d="M0 3.16667L3.11832 0V15.8333L0 19V3.16667Z" fill="url(#paint0_linear_32_100)"/>
<defs>
<linearGradient id="paint0_linear_32_100" x1="1.55916" y1="0" x2="1.55916" y2="19" gradientUnits="userSpaceOnUse">
<stop stop-color="#9B2929"/>
<stop offset="1" stop-color="#621515"/>
</linearGradient>
</defs>
</svg>
