<svg width="391" height="135" viewBox="0 0 391 135" fill="none" xmlns="http://www.w3.org/2000/svg">
<path d="M41.6797 17.8281C44.2891 17.8281 46.6953 18.2578 48.8984 19.1172C51.1172 19.9609 53.0312 21.1562 54.6406 22.7031C56.25 24.2344 57.5078 26.0781 58.4141 28.2344C59.3203 30.3906 59.7734 32.7734 59.7734 35.3828C59.7734 36.8672 59.6016 38.3281 59.2578 39.7656C58.9141 41.2031 58.4062 42.5625 57.7344 43.8438C57.0781 45.125 56.2656 46.3125 55.2969 47.4062C54.3281 48.4844 53.2188 49.4219 51.9688 50.2188C50.7344 51 49.3672 51.6094 47.8672 52.0469C46.3672 52.5 44.75 52.7266 43.0156 52.7266C40.4062 52.7266 37.9922 52.3125 35.7734 51.4844C33.5703 50.6406 31.6641 49.4531 30.0547 47.9219C28.4453 46.3906 27.1875 44.5547 26.2812 42.4141C25.375 40.2578 24.9219 37.8672 24.9219 35.2422C24.9219 33.7578 25.0938 32.2969 25.4375 30.8594C25.7812 29.4219 26.2812 28.0547 26.9375 26.7578C27.6094 25.4609 28.4219 24.2734 29.375 23.1953C30.3438 22.1016 31.4453 21.1562 32.6797 20.3594C33.9297 19.5625 35.3047 18.9453 36.8047 18.5078C38.3203 18.0547 39.9453 17.8281 41.6797 17.8281ZM43.0156 50.6172C44.75 50.6172 46.3359 50.3047 47.7734 49.6797C49.2109 49.0547 50.4453 48.1484 51.4766 46.9609C52.5234 45.7734 53.3359 44.3281 53.9141 42.625C54.4922 40.9062 54.7812 38.9609 54.7812 36.7891C54.7812 34.3828 54.5 32.1562 53.9375 30.1094C53.3906 28.0469 52.5703 26.2656 51.4766 24.7656C50.3828 23.25 49.0156 22.0703 47.375 21.2266C45.75 20.3672 43.8516 19.9375 41.6797 19.9375C39.9453 19.9375 38.3594 20.25 36.9219 20.875C35.4844 21.4844 34.2422 22.375 33.1953 23.5469C32.1641 24.7188 31.3594 26.1562 30.7812 27.8594C30.2031 29.5625 29.9141 31.5 29.9141 33.6719C29.9141 36.0625 30.1875 38.2969 30.7344 40.375C31.2812 42.4375 32.1016 44.2266 33.1953 45.7422C34.2891 47.2578 35.6562 48.4531 37.2969 49.3281C38.9375 50.1875 40.8438 50.6172 43.0156 50.6172ZM69.5469 50.1719C71 50.1719 72.3359 50.1172 73.5547 50.0078C74.7891 49.8828 75.8672 49.75 76.7891 49.6094C77.8672 49.4375 78.8438 49.2422 79.7188 49.0234L79.1797 52.1406C78.9609 52.125 78.5859 52.1016 78.0547 52.0703C77.5391 52.0547 76.9922 52.0391 76.4141 52.0234C75.8359 52.0234 75.2969 52.0156 74.7969 52C74.2969 52 73.9531 52 73.7656 52H64.7891V51.9062C64.8984 51.5781 64.9922 51.1562 65.0703 50.6406C65.1641 50.125 65.2344 49.4922 65.2812 48.7422C65.3438 47.9766 65.3906 47.0703 65.4219 46.0234C65.4531 44.9766 65.4688 43.75 65.4688 42.3438V36.4375C65.4688 35.0312 65.4531 33.8125 65.4219 32.7812C65.3906 31.7344 65.3438 30.8359 65.2812 30.0859C65.2344 29.3203 65.1641 28.6797 65.0703 28.1641C64.9922 27.6484 64.8984 27.2266 64.7891 26.8984V26.8047H70.2031V26.8984C70.0938 27.2266 70 27.6484 69.9219 28.1641C69.8438 28.6797 69.7734 29.3203 69.7109 30.0859C69.6641 30.8359 69.625 31.7344 69.5938 32.7812C69.5625 33.8125 69.5469 35.0312 69.5469 36.4375V50.1719ZM99.0781 44.0781C98.6562 44.0781 98.125 44.0781 97.4844 44.0781C96.8594 44.0781 96.1719 44.0781 95.4219 44.0781C94.6719 44.0781 93.8984 44.0781 93.1016 44.0781C92.3047 44.0781 91.5469 44.0859 90.8281 44.1016C90.1094 44.1016 89.4531 44.1094 88.8594 44.125C88.2656 44.125 87.8047 44.125 87.4766 44.125L86.6094 45.9531C86.2344 46.7031 85.9141 47.3594 85.6484 47.9219C85.3828 48.4688 85.1641 48.9531 84.9922 49.375C84.8203 49.7969 84.6953 50.1641 84.6172 50.4766C84.5391 50.7734 84.5 51.0547 84.5 51.3203C84.5 51.4922 84.5078 51.625 84.5234 51.7188C84.5391 51.7969 84.5625 51.8594 84.5938 51.9062V52H80.4688V51.9062C80.5781 51.7969 80.75 51.5625 80.9844 51.2031C81.2188 50.8281 81.4844 50.375 81.7812 49.8438C82.0938 49.3125 82.4219 48.7109 82.7656 48.0391C83.125 47.3672 83.4766 46.6719 83.8203 45.9531L93.3828 26.2188H95.1406L104.516 45.9531C104.875 46.7031 105.234 47.4219 105.594 48.1094C105.969 48.7969 106.312 49.4141 106.625 49.9609C106.938 50.4922 107.211 50.9375 107.445 51.2969C107.68 51.6406 107.836 51.8438 107.914 51.9062V52H101.914C101.945 51.875 101.961 51.7656 101.961 51.6719C101.961 51.5625 101.961 51.4453 101.961 51.3203C101.961 50.9766 101.883 50.5625 101.727 50.0781C101.586 49.5938 101.406 49.1016 101.188 48.6016C100.984 48.0859 100.766 47.5938 100.531 47.125C100.312 46.6562 100.133 46.2656 99.9922 45.9531L99.0781 44.0781ZM88.3906 42.25H89.8203C90.4766 42.25 91.1719 42.25 91.9062 42.25C92.6562 42.2344 93.4062 42.2266 94.1562 42.2266C94.9062 42.2266 95.6328 42.2266 96.3359 42.2266C97.0391 42.2109 97.6719 42.2031 98.2344 42.2031L93.3828 31.8438L88.3906 42.25ZM99.6641 20.2656C98.5078 20.6562 97.3359 21.0703 96.1484 21.5078C95.6328 21.6953 95.0938 21.8984 94.5312 22.1172C93.9688 22.3359 93.3984 22.5703 92.8203 22.8203C92.2422 23.0703 91.6562 23.3281 91.0625 23.5938C90.4844 23.8438 89.9297 24.1094 89.3984 24.3906L88.8828 23.5234C89.8984 22.8516 90.9062 22.1172 91.9062 21.3203C92.9219 20.5234 93.8516 19.7734 94.6953 19.0703C95.6641 18.2578 96.6016 17.4375 97.5078 16.6094L99.6641 20.2656ZM110.094 49.9375C110.094 49.5938 110.156 49.2734 110.281 48.9766C110.422 48.6641 110.602 48.3984 110.82 48.1797C111.055 47.9453 111.32 47.7656 111.617 47.6406C111.93 47.5 112.258 47.4297 112.602 47.4297C112.961 47.4297 113.289 47.5078 113.586 47.6641C113.898 47.8047 114.164 48.0078 114.383 48.2734C114.617 48.5234 114.797 48.8203 114.922 49.1641C115.062 49.5078 115.133 49.875 115.133 50.2656C115.133 50.875 114.992 51.5391 114.711 52.2578C114.445 52.9766 114.086 53.7109 113.633 54.4609C113.195 55.2109 112.695 55.9453 112.133 56.6641C111.586 57.3984 111.023 58.0859 110.445 58.7266L109.812 58.1875C110.594 57.2656 111.219 56.3516 111.688 55.4453C112.156 54.5391 112.43 53.5469 112.508 52.4688C111.82 52.4375 111.242 52.1875 110.773 51.7188C110.32 51.25 110.094 50.6562 110.094 49.9375ZM135.008 26.8047C136.539 26.8047 138.109 26.8047 139.719 26.8047C141.328 26.7891 142.82 26.7734 144.195 26.7578C145.57 26.7266 146.75 26.6953 147.734 26.6641C148.734 26.6328 149.391 26.5859 149.703 26.5234L148.789 29.0547C148.367 28.9453 147.891 28.8438 147.359 28.75C146.891 28.6719 146.32 28.6016 145.648 28.5391C144.992 28.4609 144.227 28.4219 143.352 28.4219C143.039 28.4219 142.68 28.4375 142.273 28.4688C141.867 28.4844 141.477 28.5078 141.102 28.5391C140.664 28.5703 140.219 28.6016 139.766 28.6328V37.8906C141.031 37.875 142.172 37.8438 143.188 37.7969C144.203 37.75 145.07 37.6875 145.789 37.6094C146.633 37.5469 147.375 37.4609 148.016 37.3516L147.453 40.1406C146.594 40.0312 145.727 39.9375 144.852 39.8594C144.102 39.7812 143.273 39.7188 142.367 39.6719C141.461 39.6094 140.594 39.5781 139.766 39.5781V50.2188C141.219 50.2188 142.555 50.1641 143.773 50.0547C144.992 49.9297 146.055 49.7969 146.961 49.6562C148.023 49.4844 148.984 49.2891 149.844 49.0703L149.305 52.1406C149.07 52.125 148.688 52.1016 148.156 52.0703C147.641 52.0547 147.094 52.0391 146.516 52.0234C145.953 52.0234 145.422 52.0156 144.922 52C144.422 52 144.078 52 143.891 52H135.008V51.9062C135.117 51.5781 135.211 51.1562 135.289 50.6406C135.383 50.125 135.453 49.4922 135.5 48.7422C135.562 47.9766 135.609 47.0703 135.641 46.0234C135.672 44.9766 135.688 43.75 135.688 42.3438V36.4375C135.688 35.0312 135.672 33.8125 135.641 32.7812C135.609 31.7344 135.562 30.8359 135.5 30.0859C135.453 29.3203 135.383 28.6797 135.289 28.1641C135.211 27.6484 135.117 27.2266 135.008 26.8984V26.8047ZM174.359 36.3438C174.359 34.9531 174.352 33.7422 174.336 32.7109C174.32 31.6797 174.289 30.7891 174.242 30.0391C174.195 29.2891 174.141 28.6641 174.078 28.1641C174.016 27.6484 173.938 27.2266 173.844 26.8984V26.8047H177.289V26.8984C177.195 27.2266 177.117 27.6484 177.055 28.1641C176.992 28.6797 176.938 29.3203 176.891 30.0859C176.844 30.8359 176.812 31.7344 176.797 32.7812C176.781 33.8125 176.773 35.0312 176.773 36.4375V43.1641C176.773 44.8516 176.508 46.2891 175.977 47.4766C175.461 48.6641 174.742 49.6406 173.82 50.4062C172.898 51.1562 171.797 51.7031 170.516 52.0469C169.25 52.4062 167.859 52.5859 166.344 52.5859C164.812 52.5859 163.391 52.4141 162.078 52.0703C160.766 51.7422 159.625 51.2109 158.656 50.4766C157.703 49.7422 156.945 48.7891 156.383 47.6172C155.836 46.4453 155.562 45.0234 155.562 43.3516V36.4375C155.562 35.0312 155.547 33.8125 155.516 32.7812C155.484 31.7344 155.438 30.8359 155.375 30.0859C155.312 29.3203 155.242 28.6797 155.164 28.1641C155.086 27.6484 154.992 27.2266 154.883 26.8984V26.8047H160.297V26.8984C160.188 27.2266 160.094 27.6484 160.016 28.1641C159.938 28.6641 159.867 29.2891 159.805 30.0391C159.758 30.7891 159.719 31.6797 159.688 32.7109C159.656 33.7422 159.641 34.9531 159.641 36.3438V43.3516C159.641 44.7422 159.852 45.8906 160.273 46.7969C160.695 47.6875 161.25 48.3984 161.938 48.9297C162.625 49.4609 163.406 49.8359 164.281 50.0547C165.156 50.2578 166.055 50.3594 166.977 50.3594C167.914 50.3594 168.82 50.2578 169.695 50.0547C170.586 49.8359 171.375 49.4609 172.062 48.9297C172.766 48.3984 173.32 47.6875 173.727 46.7969C174.148 45.8906 174.359 44.7422 174.359 43.3516V36.3438ZM209.188 31.7031H208.719C208.625 31.4375 208.469 31.1016 208.25 30.6953C208.047 30.2891 207.766 29.8906 207.406 29.5C207.062 29.1094 206.633 28.7812 206.117 28.5156C205.602 28.2344 204.984 28.0938 204.266 28.0938C203.719 28.0938 203.227 28.1875 202.789 28.375C202.367 28.5469 202.008 28.7891 201.711 29.1016C201.414 29.4141 201.188 29.7891 201.031 30.2266C200.875 30.6484 200.797 31.1094 200.797 31.6094C200.797 32.4219 201.039 33.1953 201.523 33.9297C202.023 34.6641 202.641 35.3984 203.375 36.1328C204.109 36.8516 204.906 37.5781 205.766 38.3125C206.625 39.0469 207.422 39.8125 208.156 40.6094C208.891 41.4062 209.5 42.25 209.984 43.1406C210.484 44.0312 210.734 44.9844 210.734 46C210.734 46.75 210.594 47.5234 210.312 48.3203C210.047 49.1172 209.609 49.8359 209 50.4766C208.391 51.1172 207.609 51.6406 206.656 52.0469C205.703 52.4688 204.547 52.6797 203.188 52.6797C202.438 52.6797 201.719 52.6172 201.031 52.4922C200.359 52.3672 199.734 52.2109 199.156 52.0234C198.594 51.8516 198.086 51.6641 197.633 51.4609C197.195 51.2422 196.828 51.0391 196.531 50.8516L196.953 46.4219H197.445C197.602 46.9688 197.828 47.5156 198.125 48.0625C198.438 48.6094 198.812 49.1094 199.25 49.5625C199.703 50 200.227 50.3594 200.82 50.6406C201.43 50.9062 202.125 51.0391 202.906 51.0391C203.453 51.0391 203.969 50.9531 204.453 50.7812C204.938 50.5938 205.352 50.3359 205.695 50.0078C206.055 49.6797 206.336 49.2812 206.539 48.8125C206.742 48.3281 206.844 47.7891 206.844 47.1953C206.844 46.4922 206.703 45.8438 206.422 45.25C206.141 44.6406 205.766 44.0625 205.297 43.5156C204.828 42.9531 204.297 42.4141 203.703 41.8984C203.125 41.3828 202.523 40.8594 201.898 40.3281C201.273 39.7969 200.664 39.2578 200.07 38.7109C199.492 38.1484 198.969 37.5469 198.5 36.9062C198.031 36.2656 197.656 35.5859 197.375 34.8672C197.094 34.1328 196.953 33.3281 196.953 32.4531C196.953 31.5312 197.148 30.7031 197.539 29.9688C197.93 29.2344 198.445 28.6172 199.086 28.1172C199.727 27.6016 200.461 27.2109 201.289 26.9453C202.117 26.6641 202.977 26.5234 203.867 26.5234C204.523 26.5234 205.133 26.5703 205.695 26.6641C206.273 26.7578 206.789 26.875 207.242 27.0156C207.711 27.1406 208.117 27.2734 208.461 27.4141C208.805 27.5391 209.086 27.6406 209.305 27.7188L209.188 31.7031ZM214.297 39.3203C214.297 37.4766 214.641 35.7656 215.328 34.1875C216.031 32.6094 216.984 31.2422 218.188 30.0859C219.391 28.9141 220.812 28 222.453 27.3438C224.094 26.6875 225.852 26.3594 227.727 26.3594C229.57 26.3594 231.305 26.6719 232.93 27.2969C234.57 27.9062 235.992 28.7812 237.195 29.9219C238.414 31.0625 239.375 32.4453 240.078 34.0703C240.781 35.6953 241.133 37.5156 241.133 39.5312C241.133 41.2031 240.836 42.8203 240.242 44.3828C239.648 45.9297 238.781 47.3047 237.641 48.5078C236.5 49.6953 235.094 50.6484 233.422 51.3672C231.75 52.0703 229.836 52.4219 227.68 52.4219C225.852 52.4219 224.125 52.1172 222.5 51.5078C220.875 50.8984 219.453 50.0312 218.234 48.9062C217.016 47.7656 216.055 46.3906 215.352 44.7812C214.648 43.1562 214.297 41.3359 214.297 39.3203ZM228.266 50.7578C229.453 50.7578 230.547 50.5234 231.547 50.0547C232.547 49.5859 233.406 48.9141 234.125 48.0391C234.859 47.1641 235.422 46.1016 235.812 44.8516C236.219 43.5859 236.422 42.1641 236.422 40.5859C236.422 38.7891 236.227 37.125 235.836 35.5938C235.461 34.0625 234.883 32.7422 234.102 31.6328C233.336 30.5078 232.375 29.6328 231.219 29.0078C230.062 28.3672 228.711 28.0469 227.164 28.0469C225.977 28.0469 224.883 28.2734 223.883 28.7266C222.883 29.1797 222.016 29.8359 221.281 30.6953C220.562 31.5547 220 32.6094 219.594 33.8594C219.188 35.1094 218.984 36.5312 218.984 38.125C218.984 39.9062 219.18 41.5703 219.57 43.1172C219.977 44.6484 220.562 45.9844 221.328 47.125C222.109 48.25 223.078 49.1406 224.234 49.7969C225.391 50.4375 226.734 50.7578 228.266 50.7578ZM265.203 36.3438C265.203 34.9531 265.195 33.7422 265.18 32.7109C265.164 31.6797 265.133 30.7891 265.086 30.0391C265.039 29.2891 264.984 28.6641 264.922 28.1641C264.859 27.6484 264.781 27.2266 264.688 26.8984V26.8047H268.133V26.8984C268.039 27.2266 267.961 27.6484 267.898 28.1641C267.836 28.6797 267.781 29.3203 267.734 30.0859C267.688 30.8359 267.656 31.7344 267.641 32.7812C267.625 33.8125 267.617 35.0312 267.617 36.4375V43.1641C267.617 44.8516 267.352 46.2891 266.82 47.4766C266.305 48.6641 265.586 49.6406 264.664 50.4062C263.742 51.1562 262.641 51.7031 261.359 52.0469C260.094 52.4062 258.703 52.5859 257.188 52.5859C255.656 52.5859 254.234 52.4141 252.922 52.0703C251.609 51.7422 250.469 51.2109 249.5 50.4766C248.547 49.7422 247.789 48.7891 247.227 47.6172C246.68 46.4453 246.406 45.0234 246.406 43.3516V36.4375C246.406 35.0312 246.391 33.8125 246.359 32.7812C246.328 31.7344 246.281 30.8359 246.219 30.0859C246.156 29.3203 246.086 28.6797 246.008 28.1641C245.93 27.6484 245.836 27.2266 245.727 26.8984V26.8047H251.141V26.8984C251.031 27.2266 250.938 27.6484 250.859 28.1641C250.781 28.6641 250.711 29.2891 250.648 30.0391C250.602 30.7891 250.562 31.6797 250.531 32.7109C250.5 33.7422 250.484 34.9531 250.484 36.3438V43.3516C250.484 44.7422 250.695 45.8906 251.117 46.7969C251.539 47.6875 252.094 48.3984 252.781 48.9297C253.469 49.4609 254.25 49.8359 255.125 50.0547C256 50.2578 256.898 50.3594 257.82 50.3594C258.758 50.3594 259.664 50.2578 260.539 50.0547C261.43 49.8359 262.219 49.4609 262.906 48.9297C263.609 48.3984 264.164 47.6875 264.57 46.7969C264.992 45.8906 265.203 44.7422 265.203 43.3516V36.3438ZM287.281 39.3203C287.281 37.4766 287.625 35.7656 288.312 34.1875C289.016 32.6094 289.969 31.2422 291.172 30.0859C292.375 28.9141 293.797 28 295.438 27.3438C297.078 26.6875 298.836 26.3594 300.711 26.3594C302.555 26.3594 304.289 26.6719 305.914 27.2969C307.555 27.9062 308.977 28.7812 310.18 29.9219C311.398 31.0625 312.359 32.4453 313.062 34.0703C313.766 35.6953 314.117 37.5156 314.117 39.5312C314.117 41.2031 313.82 42.8203 313.227 44.3828C312.633 45.9297 311.766 47.3047 310.625 48.5078C309.484 49.6953 308.078 50.6484 306.406 51.3672C304.734 52.0703 302.82 52.4219 300.664 52.4219C298.836 52.4219 297.109 52.1172 295.484 51.5078C293.859 50.8984 292.438 50.0312 291.219 48.9062C290 47.7656 289.039 46.3906 288.336 44.7812C287.633 43.1562 287.281 41.3359 287.281 39.3203ZM301.25 50.7578C302.438 50.7578 303.531 50.5234 304.531 50.0547C305.531 49.5859 306.391 48.9141 307.109 48.0391C307.844 47.1641 308.406 46.1016 308.797 44.8516C309.203 43.5859 309.406 42.1641 309.406 40.5859C309.406 38.7891 309.211 37.125 308.82 35.5938C308.445 34.0625 307.867 32.7422 307.086 31.6328C306.32 30.5078 305.359 29.6328 304.203 29.0078C303.047 28.3672 301.695 28.0469 300.148 28.0469C298.961 28.0469 297.867 28.2734 296.867 28.7266C295.867 29.1797 295 29.8359 294.266 30.6953C293.547 31.5547 292.984 32.6094 292.578 33.8594C292.172 35.1094 291.969 36.5312 291.969 38.125C291.969 39.9062 292.164 41.5703 292.555 43.1172C292.961 44.6484 293.547 45.9844 294.312 47.125C295.094 48.25 296.062 49.1406 297.219 49.7969C298.375 50.4375 299.719 50.7578 301.25 50.7578Z" fill="#525252"/>
<path d="M25.25 121.875C25.4792 121.542 25.7396 121.052 26.0312 120.406C26.3229 119.74 26.5521 118.906 26.7188 117.906C26.9479 116.448 27.1979 114.812 27.4688 113C27.7604 111.167 28.0521 109.25 28.3438 107.25C28.6562 105.25 28.9583 103.208 29.25 101.125C29.5625 99.0208 29.8542 96.9583 30.125 94.9375C30.4167 92.8958 30.6875 90.9375 30.9375 89.0625C31.2083 87.1667 31.4479 85.4375 31.6562 83.875C31.8646 82.3125 32.0312 80.9583 32.1562 79.8125C32.3021 78.6458 32.4062 77.7708 32.4688 77.1875H36.4375L56.0938 113.938L75.5938 77.1875H78.5625L83.6875 114.312C83.8333 115.479 83.9896 116.479 84.1562 117.312C84.3229 118.146 84.4896 118.865 84.6562 119.469C84.8229 120.052 84.9792 120.542 85.125 120.938C85.2917 121.312 85.4479 121.625 85.5938 121.875V122H77.7188V121.875C77.8229 121.646 77.9167 121.271 78 120.75C78.1042 120.229 78.1562 119.604 78.1562 118.875C78.1562 118.604 78.1458 118.333 78.125 118.062C78.1042 117.771 78.0729 117.458 78.0312 117.125L74.0625 87.1875L55.625 121.875L53.4688 121.625L34.9062 86.875C34.1771 91.8125 33.5417 96.375 33 100.562C32.7708 102.354 32.5417 104.146 32.3125 105.938C32.0833 107.708 31.875 109.365 31.6875 110.906C31.5208 112.448 31.3854 113.812 31.2812 115C31.1771 116.167 31.125 117.031 31.125 117.594C31.125 118.302 31.1458 118.927 31.1875 119.469C31.2292 120.01 31.2708 120.469 31.3125 120.844C31.375 121.281 31.4375 121.667 31.5 122H25.25V121.875ZM112.688 111.438C112.125 111.438 111.417 111.438 110.562 111.438C109.729 111.438 108.812 111.438 107.812 111.438C106.812 111.438 105.781 111.438 104.719 111.438C103.656 111.438 102.646 111.448 101.688 111.469C100.729 111.469 99.8542 111.479 99.0625 111.5C98.2708 111.5 97.6562 111.5 97.2188 111.5L96.0625 113.938C95.5625 114.938 95.1354 115.812 94.7812 116.562C94.4271 117.292 94.1354 117.938 93.9062 118.5C93.6771 119.062 93.5104 119.552 93.4062 119.969C93.3021 120.365 93.25 120.74 93.25 121.094C93.25 121.323 93.2604 121.5 93.2812 121.625C93.3021 121.729 93.3333 121.812 93.375 121.875V122H87.875V121.875C88.0208 121.729 88.25 121.417 88.5625 120.938C88.875 120.438 89.2292 119.833 89.625 119.125C90.0417 118.417 90.4792 117.615 90.9375 116.719C91.4167 115.823 91.8854 114.896 92.3438 113.938L105.094 87.625H107.438L119.938 113.938C120.417 114.938 120.896 115.896 121.375 116.812C121.875 117.729 122.333 118.552 122.75 119.281C123.167 119.99 123.531 120.583 123.844 121.062C124.156 121.521 124.365 121.792 124.469 121.875V122H116.469C116.51 121.833 116.531 121.688 116.531 121.562C116.531 121.417 116.531 121.26 116.531 121.094C116.531 120.635 116.427 120.083 116.219 119.438C116.031 118.792 115.792 118.135 115.5 117.469C115.229 116.781 114.938 116.125 114.625 115.5C114.333 114.875 114.094 114.354 113.906 113.938L112.688 111.438ZM98.4375 109H100.344C101.219 109 102.146 109 103.125 109C104.125 108.979 105.125 108.969 106.125 108.969C107.125 108.969 108.094 108.969 109.031 108.969C109.969 108.948 110.812 108.938 111.562 108.938L105.094 95.125L98.4375 109ZM134.625 105.688C135.042 105.75 135.458 105.802 135.875 105.844C136.312 105.865 136.729 105.875 137.125 105.875C139.729 105.875 141.698 105.177 143.031 103.781C144.385 102.385 145.062 100.292 145.062 97.5C145.062 95.2083 144.521 93.3958 143.438 92.0625C142.375 90.7292 140.802 90.0625 138.719 90.0625C138.052 90.0625 137.458 90.0938 136.938 90.1562C136.438 90.1979 136.01 90.25 135.656 90.3125C135.26 90.3958 134.917 90.4792 134.625 90.5625V105.688ZM139.406 107.719C138.99 107.781 138.573 107.823 138.156 107.844C137.76 107.844 137.354 107.844 136.938 107.844C136.604 107.844 136.24 107.833 135.844 107.812C135.448 107.792 135.042 107.76 134.625 107.719V109.25C134.625 111.104 134.646 112.729 134.688 114.125C134.729 115.5 134.781 116.688 134.844 117.688C134.927 118.688 135.021 119.531 135.125 120.219C135.229 120.885 135.354 121.438 135.5 121.875V122H128.281V121.875C128.427 121.438 128.552 120.875 128.656 120.188C128.781 119.5 128.875 118.656 128.938 117.656C129.021 116.635 129.083 115.427 129.125 114.031C129.167 112.635 129.188 111 129.188 109.125V101.25C129.188 99.375 129.167 97.75 129.125 96.375C129.083 94.9792 129.021 93.7812 128.938 92.7812C128.875 91.7604 128.781 90.9062 128.656 90.2188C128.552 89.5312 128.427 88.9688 128.281 88.5312V88.4062C128.615 88.4271 128.969 88.4479 129.344 88.4688C129.656 88.4896 130 88.5104 130.375 88.5312C130.771 88.5312 131.167 88.5312 131.562 88.5312C132.229 88.5312 133.219 88.4688 134.531 88.3438C135.844 88.2188 137.385 88.1562 139.156 88.1562C140.948 88.1562 142.573 88.375 144.031 88.8125C145.51 89.25 146.771 89.875 147.812 90.6875C148.875 91.5 149.688 92.4896 150.25 93.6562C150.833 94.8229 151.125 96.125 151.125 97.5625C151.125 98.6875 150.969 99.7188 150.656 100.656C150.344 101.573 149.906 102.406 149.344 103.156C148.781 103.885 148.115 104.531 147.344 105.094C146.573 105.656 145.719 106.146 144.781 106.562L151.312 115.781C151.875 116.531 152.438 117.25 153 117.938C153.583 118.625 154.135 119.24 154.656 119.781C155.177 120.323 155.667 120.781 156.125 121.156C156.583 121.51 156.969 121.75 157.281 121.875V122H149.094C149.094 121.812 148.958 121.49 148.688 121.031C148.438 120.552 148.135 120.062 147.781 119.562C147.448 119.042 147.104 118.542 146.75 118.062C146.417 117.583 146.167 117.229 146 117L139.406 107.719ZM188.438 115.031L186 120.844C185.396 121.115 184.708 121.365 183.938 121.594C183.188 121.802 182.406 121.979 181.594 122.125C180.781 122.271 179.948 122.375 179.094 122.438C178.26 122.521 177.469 122.562 176.719 122.562C174.094 122.562 171.656 122.177 169.406 121.406C167.177 120.635 165.25 119.51 163.625 118.031C162 116.531 160.729 114.698 159.812 112.531C158.896 110.365 158.438 107.885 158.438 105.094C158.438 102.635 158.917 100.354 159.875 98.25C160.833 96.1458 162.156 94.3229 163.844 92.7812C165.531 91.2188 167.521 90 169.812 89.125C172.125 88.25 174.625 87.8125 177.312 87.8125C177.917 87.8125 178.552 87.8438 179.219 87.9062C179.906 87.9479 180.583 88.0208 181.25 88.125C181.917 88.2292 182.562 88.3542 183.188 88.5C183.812 88.625 184.396 88.7604 184.938 88.9062L187.281 94.5312L186.906 94.75C186.344 94.0625 185.667 93.4271 184.875 92.8438C184.104 92.2604 183.25 91.7708 182.312 91.375C181.396 90.9583 180.427 90.6354 179.406 90.4062C178.385 90.1771 177.344 90.0625 176.281 90.0625C174.552 90.0625 172.969 90.3646 171.531 90.9688C170.115 91.5729 168.896 92.4583 167.875 93.625C166.875 94.7708 166.094 96.1771 165.531 97.8438C164.969 99.5104 164.688 101.396 164.688 103.5C164.688 105.875 164.958 108.094 165.5 110.156C166.042 112.198 166.854 113.979 167.938 115.5C169.021 117 170.375 118.188 172 119.062C173.625 119.917 175.521 120.344 177.688 120.344C178.729 120.344 179.75 120.219 180.75 119.969C181.771 119.698 182.729 119.323 183.625 118.844C184.542 118.365 185.375 117.792 186.125 117.125C186.875 116.438 187.521 115.677 188.062 114.844L188.438 115.031ZM193.531 88.4062C195.573 88.4062 197.667 88.4062 199.812 88.4062C201.958 88.3854 203.948 88.3646 205.781 88.3438C207.615 88.3021 209.188 88.2604 210.5 88.2188C211.833 88.1771 212.708 88.1146 213.125 88.0312L211.906 91.4062C211.344 91.2604 210.708 91.125 210 91C209.375 90.8958 208.615 90.8021 207.719 90.7188C206.844 90.6146 205.823 90.5625 204.656 90.5625C204.24 90.5625 203.76 90.5833 203.219 90.625C202.677 90.6458 202.156 90.6771 201.656 90.7188C201.073 90.7604 200.479 90.8021 199.875 90.8438V103.188C201.562 103.167 203.083 103.125 204.438 103.062C205.792 103 206.948 102.917 207.906 102.812C209.031 102.729 210.021 102.615 210.875 102.469L210.125 106.188C208.979 106.042 207.823 105.917 206.656 105.812C205.656 105.708 204.552 105.625 203.344 105.562C202.135 105.479 200.979 105.438 199.875 105.438V119.625C201.812 119.625 203.594 119.552 205.219 119.406C206.844 119.24 208.26 119.062 209.469 118.875C210.885 118.646 212.167 118.385 213.312 118.094L212.594 122.188C212.281 122.167 211.771 122.135 211.062 122.094C210.375 122.073 209.646 122.052 208.875 122.031C208.125 122.031 207.417 122.021 206.75 122C206.083 122 205.625 122 205.375 122H193.531V121.875C193.677 121.438 193.802 120.875 193.906 120.188C194.031 119.5 194.125 118.656 194.188 117.656C194.271 116.635 194.333 115.427 194.375 114.031C194.417 112.635 194.438 111 194.438 109.125V101.25C194.438 99.375 194.417 97.75 194.375 96.375C194.333 94.9792 194.271 93.7812 194.188 92.7812C194.125 91.7604 194.031 90.9062 193.906 90.2188C193.802 89.5312 193.677 88.9688 193.531 88.5312V88.4062ZM226.625 119.562C228.562 119.562 230.344 119.49 231.969 119.344C233.615 119.177 235.052 119 236.281 118.812C237.719 118.583 239.021 118.323 240.188 118.031L239.469 122.188C239.177 122.167 238.677 122.135 237.969 122.094C237.281 122.073 236.552 122.052 235.781 122.031C235.01 122.031 234.292 122.021 233.625 122C232.958 122 232.5 122 232.25 122H220.281V121.875C220.427 121.438 220.552 120.875 220.656 120.188C220.781 119.5 220.875 118.656 220.938 117.656C221.021 116.635 221.083 115.427 221.125 114.031C221.167 112.635 221.188 111 221.188 109.125V101.25C221.188 99.375 221.167 97.75 221.125 96.375C221.083 94.9792 221.021 93.7812 220.938 92.7812C220.875 91.7604 220.781 90.9062 220.656 90.2188C220.552 89.5312 220.427 88.9688 220.281 88.5312V88.4062H227.5V88.5312C227.354 88.9688 227.229 89.5312 227.125 90.2188C227.021 90.9062 226.927 91.7604 226.844 92.7812C226.781 93.7812 226.729 94.9792 226.688 96.375C226.646 97.75 226.625 99.375 226.625 101.25V119.562ZM243.812 105.094C243.812 102.635 244.271 100.354 245.188 98.25C246.125 96.1458 247.396 94.3229 249 92.7812C250.604 91.2188 252.5 90 254.688 89.125C256.875 88.25 259.219 87.8125 261.719 87.8125C264.177 87.8125 266.49 88.2292 268.656 89.0625C270.844 89.875 272.74 91.0417 274.344 92.5625C275.969 94.0833 277.25 95.9271 278.188 98.0938C279.125 100.26 279.594 102.688 279.594 105.375C279.594 107.604 279.198 109.76 278.406 111.844C277.615 113.906 276.458 115.74 274.938 117.344C273.417 118.927 271.542 120.198 269.312 121.156C267.083 122.094 264.531 122.562 261.656 122.562C259.219 122.562 256.917 122.156 254.75 121.344C252.583 120.531 250.688 119.375 249.062 117.875C247.438 116.354 246.156 114.521 245.219 112.375C244.281 110.208 243.812 107.781 243.812 105.094ZM262.438 120.344C264.021 120.344 265.479 120.031 266.812 119.406C268.146 118.781 269.292 117.885 270.25 116.719C271.229 115.552 271.979 114.135 272.5 112.469C273.042 110.781 273.312 108.885 273.312 106.781C273.312 104.385 273.052 102.167 272.531 100.125C272.031 98.0833 271.26 96.3229 270.219 94.8438C269.198 93.3438 267.917 92.1771 266.375 91.3438C264.833 90.4896 263.031 90.0625 260.969 90.0625C259.385 90.0625 257.927 90.3646 256.594 90.9688C255.26 91.5729 254.104 92.4479 253.125 93.5938C252.167 94.7396 251.417 96.1458 250.875 97.8125C250.333 99.4792 250.062 101.375 250.062 103.5C250.062 105.875 250.323 108.094 250.844 110.156C251.385 112.198 252.167 113.979 253.188 115.5C254.229 117 255.521 118.188 257.062 119.062C258.604 119.917 260.396 120.344 262.438 120.344Z" fill="#141414"/>
<path d="M0 12L10 7V123L0 128V12Z" fill="url(#paint0_linear_32_19)"/>
<defs>
<linearGradient id="paint0_linear_32_19" x1="5" y1="7" x2="5" y2="128" gradientUnits="userSpaceOnUse">
<stop stop-color="#9D2929"/>
<stop offset="1" stop-color="#5C1313"/>
</linearGradient>
</defs>
</svg>
