<svg width="209" height="60" viewBox="0 0 209 60" fill="none" xmlns="http://www.w3.org/2000/svg">
<path d="M17.6875 46.9062C17.8594 46.6562 18.0547 46.2891 18.2734 45.8047C18.4922 45.3047 18.6641 44.6797 18.7891 43.9297C18.9609 42.8359 19.1484 41.6094 19.3516 40.25C19.5703 38.875 19.7891 37.4375 20.0078 35.9375C20.2422 34.4375 20.4688 32.9062 20.6875 31.3438C20.9219 29.7656 21.1406 28.2188 21.3438 26.7031C21.5625 25.1719 21.7656 23.7031 21.9531 22.2969C22.1562 20.875 22.3359 19.5781 22.4922 18.4062C22.6484 17.2344 22.7734 16.2188 22.8672 15.3594C22.9766 14.4844 23.0547 13.8281 23.1016 13.3906H26.0781L40.8203 40.9531L55.4453 13.3906H57.6719L61.5156 41.2344C61.625 42.1094 61.7422 42.8594 61.8672 43.4844C61.9922 44.1094 62.1172 44.6484 62.2422 45.1016C62.3672 45.5391 62.4844 45.9062 62.5938 46.2031C62.7188 46.4844 62.8359 46.7188 62.9453 46.9062V47H57.0391V46.9062C57.1172 46.7344 57.1875 46.4531 57.25 46.0625C57.3281 45.6719 57.3672 45.2031 57.3672 44.6562C57.3672 44.4531 57.3594 44.25 57.3438 44.0469C57.3281 43.8281 57.3047 43.5938 57.2734 43.3438L54.2969 20.8906L40.4688 46.9062L38.8516 46.7188L24.9297 20.6562C24.3828 24.3594 23.9062 27.7812 23.5 30.9219C23.3281 32.2656 23.1562 33.6094 22.9844 34.9531C22.8125 36.2812 22.6562 37.5234 22.5156 38.6797C22.3906 39.8359 22.2891 40.8594 22.2109 41.75C22.1328 42.625 22.0938 43.2734 22.0938 43.6953C22.0938 44.2266 22.1094 44.6953 22.1406 45.1016C22.1719 45.5078 22.2031 45.8516 22.2344 46.1328C22.2812 46.4609 22.3281 46.75 22.375 47H17.6875V46.9062Z" fill="#141414"/>
<path d="M83.2656 39.0781C82.8438 39.0781 82.3125 39.0781 81.6719 39.0781C81.0469 39.0781 80.3594 39.0781 79.6094 39.0781C78.8594 39.0781 78.0859 39.0781 77.2891 39.0781C76.4922 39.0781 75.7344 39.0859 75.0156 39.1016C74.2969 39.1016 73.6406 39.1094 73.0469 39.125C72.4531 39.125 71.9922 39.125 71.6641 39.125L70.7969 40.9531C70.4219 41.7031 70.1016 42.3594 69.8359 42.9219C69.5703 43.4688 69.3516 43.9531 69.1797 44.375C69.0078 44.7969 68.8828 45.1641 68.8047 45.4766C68.7266 45.7734 68.6875 46.0547 68.6875 46.3203C68.6875 46.4922 68.6953 46.625 68.7109 46.7188C68.7266 46.7969 68.75 46.8594 68.7812 46.9062V47H64.6562V46.9062C64.7656 46.7969 64.9375 46.5625 65.1719 46.2031C65.4062 45.8281 65.6719 45.375 65.9688 44.8438C66.2812 44.3125 66.6094 43.7109 66.9531 43.0391C67.3125 42.3672 67.6641 41.6719 68.0078 40.9531L77.5703 21.2188H79.3281L88.7031 40.9531C89.0625 41.7031 89.4219 42.4219 89.7812 43.1094C90.1562 43.7969 90.5 44.4141 90.8125 44.9609C91.125 45.4922 91.3984 45.9375 91.6328 46.2969C91.8672 46.6406 92.0234 46.8438 92.1016 46.9062V47H86.1016C86.1328 46.875 86.1484 46.7656 86.1484 46.6719C86.1484 46.5625 86.1484 46.4453 86.1484 46.3203C86.1484 45.9766 86.0703 45.5625 85.9141 45.0781C85.7734 44.5938 85.5938 44.1016 85.375 43.6016C85.1719 43.0859 84.9531 42.5938 84.7188 42.125C84.5 41.6562 84.3203 41.2656 84.1797 40.9531L83.2656 39.0781ZM72.5781 37.25H74.0078C74.6641 37.25 75.3594 37.25 76.0938 37.25C76.8438 37.2344 77.5938 37.2266 78.3438 37.2266C79.0938 37.2266 79.8203 37.2266 80.5234 37.2266C81.2266 37.2109 81.8594 37.2031 82.4219 37.2031L77.5703 26.8438L72.5781 37.25Z" fill="#141414"/>
<path d="M99.7188 34.7656C100.031 34.8125 100.344 34.8516 100.656 34.8828C100.984 34.8984 101.297 34.9062 101.594 34.9062C103.547 34.9062 105.023 34.3828 106.023 33.3359C107.039 32.2891 107.547 30.7188 107.547 28.625C107.547 26.9062 107.141 25.5469 106.328 24.5469C105.531 23.5469 104.352 23.0469 102.789 23.0469C102.289 23.0469 101.844 23.0703 101.453 23.1172C101.078 23.1484 100.758 23.1875 100.492 23.2344C100.195 23.2969 99.9375 23.3594 99.7188 23.4219V34.7656ZM103.305 36.2891C102.992 36.3359 102.68 36.3672 102.367 36.3828C102.07 36.3828 101.766 36.3828 101.453 36.3828C101.203 36.3828 100.93 36.375 100.633 36.3594C100.336 36.3438 100.031 36.3203 99.7188 36.2891V37.4375C99.7188 38.8281 99.7344 40.0469 99.7656 41.0938C99.7969 42.125 99.8359 43.0156 99.8828 43.7656C99.9453 44.5156 100.016 45.1484 100.094 45.6641C100.172 46.1641 100.266 46.5781 100.375 46.9062V47H94.9609V46.9062C95.0703 46.5781 95.1641 46.1562 95.2422 45.6406C95.3359 45.125 95.4062 44.4922 95.4531 43.7422C95.5156 42.9766 95.5625 42.0703 95.5938 41.0234C95.625 39.9766 95.6406 38.75 95.6406 37.3438V31.4375C95.6406 30.0312 95.625 28.8125 95.5938 27.7812C95.5625 26.7344 95.5156 25.8359 95.4531 25.0859C95.4062 24.3203 95.3359 23.6797 95.2422 23.1641C95.1641 22.6484 95.0703 22.2266 94.9609 21.8984V21.8047C95.2109 21.8203 95.4766 21.8359 95.7578 21.8516C95.9922 21.8672 96.25 21.8828 96.5312 21.8984C96.8281 21.8984 97.125 21.8984 97.4219 21.8984C97.9219 21.8984 98.6641 21.8516 99.6484 21.7578C100.633 21.6641 101.789 21.6172 103.117 21.6172C104.461 21.6172 105.68 21.7812 106.773 22.1094C107.883 22.4375 108.828 22.9062 109.609 23.5156C110.406 24.125 111.016 24.8672 111.438 25.7422C111.875 26.6172 112.094 27.5938 112.094 28.6719C112.094 29.5156 111.977 30.2891 111.742 30.9922C111.508 31.6797 111.18 32.3047 110.758 32.8672C110.336 33.4141 109.836 33.8984 109.258 34.3203C108.68 34.7422 108.039 35.1094 107.336 35.4219L112.234 42.3359C112.656 42.8984 113.078 43.4375 113.5 43.9531C113.938 44.4688 114.352 44.9297 114.742 45.3359C115.133 45.7422 115.5 46.0859 115.844 46.3672C116.188 46.6328 116.477 46.8125 116.711 46.9062V47H110.57C110.57 46.8594 110.469 46.6172 110.266 46.2734C110.078 45.9141 109.852 45.5469 109.586 45.1719C109.336 44.7812 109.078 44.4062 108.812 44.0469C108.562 43.6875 108.375 43.4219 108.25 43.25L103.305 36.2891Z" fill="#141414"/>
<path d="M140.078 41.7734L138.25 46.1328C137.797 46.3359 137.281 46.5234 136.703 46.6953C136.141 46.8516 135.555 46.9844 134.945 47.0938C134.336 47.2031 133.711 47.2812 133.07 47.3281C132.445 47.3906 131.852 47.4219 131.289 47.4219C129.32 47.4219 127.492 47.1328 125.805 46.5547C124.133 45.9766 122.688 45.1328 121.469 44.0234C120.25 42.8984 119.297 41.5234 118.609 39.8984C117.922 38.2734 117.578 36.4141 117.578 34.3203C117.578 32.4766 117.938 30.7656 118.656 29.1875C119.375 27.6094 120.367 26.2422 121.633 25.0859C122.898 23.9141 124.391 23 126.109 22.3438C127.844 21.6875 129.719 21.3594 131.734 21.3594C132.188 21.3594 132.664 21.3828 133.164 21.4297C133.68 21.4609 134.188 21.5156 134.688 21.5938C135.188 21.6719 135.672 21.7656 136.141 21.875C136.609 21.9688 137.047 22.0703 137.453 22.1797L139.211 26.3984L138.93 26.5625C138.508 26.0469 138 25.5703 137.406 25.1328C136.828 24.6953 136.188 24.3281 135.484 24.0312C134.797 23.7188 134.07 23.4766 133.305 23.3047C132.539 23.1328 131.758 23.0469 130.961 23.0469C129.664 23.0469 128.477 23.2734 127.398 23.7266C126.336 24.1797 125.422 24.8438 124.656 25.7188C123.906 26.5781 123.32 27.6328 122.898 28.8828C122.477 30.1328 122.266 31.5469 122.266 33.125C122.266 34.9062 122.469 36.5703 122.875 38.1172C123.281 39.6484 123.891 40.9844 124.703 42.125C125.516 43.25 126.531 44.1406 127.75 44.7969C128.969 45.4375 130.391 45.7578 132.016 45.7578C132.797 45.7578 133.562 45.6641 134.312 45.4766C135.078 45.2734 135.797 44.9922 136.469 44.6328C137.156 44.2734 137.781 43.8438 138.344 43.3438C138.906 42.8281 139.391 42.2578 139.797 41.6328L140.078 41.7734Z" fill="#141414"/>
<path d="M143.898 21.8047C145.43 21.8047 147 21.8047 148.609 21.8047C150.219 21.7891 151.711 21.7734 153.086 21.7578C154.461 21.7266 155.641 21.6953 156.625 21.6641C157.625 21.6328 158.281 21.5859 158.594 21.5234L157.68 24.0547C157.258 23.9453 156.781 23.8438 156.25 23.75C155.781 23.6719 155.211 23.6016 154.539 23.5391C153.883 23.4609 153.117 23.4219 152.242 23.4219C151.93 23.4219 151.57 23.4375 151.164 23.4688C150.758 23.4844 150.367 23.5078 149.992 23.5391C149.555 23.5703 149.109 23.6016 148.656 23.6328V32.8906C149.922 32.875 151.062 32.8438 152.078 32.7969C153.094 32.75 153.961 32.6875 154.68 32.6094C155.523 32.5469 156.266 32.4609 156.906 32.3516L156.344 35.1406C155.484 35.0312 154.617 34.9375 153.742 34.8594C152.992 34.7812 152.164 34.7188 151.258 34.6719C150.352 34.6094 149.484 34.5781 148.656 34.5781V45.2188C150.109 45.2188 151.445 45.1641 152.664 45.0547C153.883 44.9297 154.945 44.7969 155.852 44.6562C156.914 44.4844 157.875 44.2891 158.734 44.0703L158.195 47.1406C157.961 47.125 157.578 47.1016 157.047 47.0703C156.531 47.0547 155.984 47.0391 155.406 47.0234C154.844 47.0234 154.312 47.0156 153.812 47C153.312 47 152.969 47 152.781 47H143.898V46.9062C144.008 46.5781 144.102 46.1562 144.18 45.6406C144.273 45.125 144.344 44.4922 144.391 43.7422C144.453 42.9766 144.5 42.0703 144.531 41.0234C144.562 39.9766 144.578 38.75 144.578 37.3438V31.4375C144.578 30.0312 144.562 28.8125 144.531 27.7812C144.5 26.7344 144.453 25.8359 144.391 25.0859C144.344 24.3203 144.273 23.6797 144.18 23.1641C144.102 22.6484 144.008 22.2266 143.898 21.8984V21.8047Z" fill="#141414"/>
<path d="M168.719 45.1719C170.172 45.1719 171.508 45.1172 172.727 45.0078C173.961 44.8828 175.039 44.75 175.961 44.6094C177.039 44.4375 178.016 44.2422 178.891 44.0234L178.352 47.1406C178.133 47.125 177.758 47.1016 177.227 47.0703C176.711 47.0547 176.164 47.0391 175.586 47.0234C175.008 47.0234 174.469 47.0156 173.969 47C173.469 47 173.125 47 172.938 47H163.961V46.9062C164.07 46.5781 164.164 46.1562 164.242 45.6406C164.336 45.125 164.406 44.4922 164.453 43.7422C164.516 42.9766 164.562 42.0703 164.594 41.0234C164.625 39.9766 164.641 38.75 164.641 37.3438V31.4375C164.641 30.0312 164.625 28.8125 164.594 27.7812C164.562 26.7344 164.516 25.8359 164.453 25.0859C164.406 24.3203 164.336 23.6797 164.242 23.1641C164.164 22.6484 164.07 22.2266 163.961 21.8984V21.8047H169.375V21.8984C169.266 22.2266 169.172 22.6484 169.094 23.1641C169.016 23.6797 168.945 24.3203 168.883 25.0859C168.836 25.8359 168.797 26.7344 168.766 27.7812C168.734 28.8125 168.719 30.0312 168.719 31.4375V45.1719Z" fill="#141414"/>
<path d="M181.609 34.3203C181.609 32.4766 181.953 30.7656 182.641 29.1875C183.344 27.6094 184.297 26.2422 185.5 25.0859C186.703 23.9141 188.125 23 189.766 22.3438C191.406 21.6875 193.164 21.3594 195.039 21.3594C196.883 21.3594 198.617 21.6719 200.242 22.2969C201.883 22.9062 203.305 23.7812 204.508 24.9219C205.727 26.0625 206.688 27.4453 207.391 29.0703C208.094 30.6953 208.445 32.5156 208.445 34.5312C208.445 36.2031 208.148 37.8203 207.555 39.3828C206.961 40.9297 206.094 42.3047 204.953 43.5078C203.812 44.6953 202.406 45.6484 200.734 46.3672C199.062 47.0703 197.148 47.4219 194.992 47.4219C193.164 47.4219 191.438 47.1172 189.812 46.5078C188.188 45.8984 186.766 45.0312 185.547 43.9062C184.328 42.7656 183.367 41.3906 182.664 39.7812C181.961 38.1562 181.609 36.3359 181.609 34.3203ZM195.578 45.7578C196.766 45.7578 197.859 45.5234 198.859 45.0547C199.859 44.5859 200.719 43.9141 201.438 43.0391C202.172 42.1641 202.734 41.1016 203.125 39.8516C203.531 38.5859 203.734 37.1641 203.734 35.5859C203.734 33.7891 203.539 32.125 203.148 30.5938C202.773 29.0625 202.195 27.7422 201.414 26.6328C200.648 25.5078 199.688 24.6328 198.531 24.0078C197.375 23.3672 196.023 23.0469 194.477 23.0469C193.289 23.0469 192.195 23.2734 191.195 23.7266C190.195 24.1797 189.328 24.8359 188.594 25.6953C187.875 26.5547 187.312 27.6094 186.906 28.8594C186.5 30.1094 186.297 31.5312 186.297 33.125C186.297 34.9062 186.492 36.5703 186.883 38.1172C187.289 39.6484 187.875 40.9844 188.641 42.125C189.422 43.25 190.391 44.1406 191.547 44.7969C192.703 45.4375 194.047 45.7578 195.578 45.7578Z" fill="#141414"/>
<path d="M0 10L10 0V50L0 60V10Z" fill="url(#paint0_linear_28_29)"/>
<defs>
<linearGradient id="paint0_linear_28_29" x1="5" y1="0" x2="5" y2="60" gradientUnits="userSpaceOnUse">
<stop stop-color="#9B2929"/>
<stop offset="1" stop-color="#621515"/>
</linearGradient>
</defs>
</svg>
